<svg id="Capa_1" xmlns="http://www.w3.org/2000/svg" version="1.1" viewBox="0 0 824.06 824.06">
  <!-- Generator: Adobe Illustrator 29.3.1, SVG Export Plug-In . SVG Version: 2.1.0 Build 151)  -->
  <defs>
    <style>
      .st0 {
        fill: #fff;
      }
    </style>
  </defs>
  <circle class="st0" cx="412.03" cy="412.03" r="412.03"/>
  <g>
    <path d="M163.86,616.37l203.94-405.29c3.14-3.53,7.46-.61,10.6-.67s5.76-1.47,8.95-1.06c1.41.18,1.76-.5,1.48,1.49l-194.98,387.52,58.51.02,157.5-317.02c2.34-.49,1.6.31,2.23,1.29,10.61,16.51,20.72,40.27,29.62,58.35,28.42,57.74,56.07,115.88,84.26,173.74,10.11,20.74,22.02,41.04,29.88,62.62h-16.5l-30.19-56.81-196.81-.2c-2.27.43-6.48,9.2-8.02,11.98-11.82,21.39-21.47,44.21-32.48,66.02h355l-198-389h19.5c72.83,133.9,139.32,271.19,208.5,407H163.86ZM503.86,506.37l-93.99-188-92.01,188h186Z"/>
    <polygon points="660.2 226.82 439.2 226.82 432.2 209.37 652.36 209.37 660.2 226.82"/>
    <polyline points="362.71 221.19 369.42 207.69 390.33 207.69 379.09 230.22"/>
  </g>
</svg>